<svg class="link-svc-icon" viewBox="0 0 24 24" aria-hidden="true">
    <path d="M20.25 1.5H3.75C2.507 1.5 1.5 2.507 1.5 3.75v16.5C1.5 21.493 2.507 22.5 3.75 22.5h16.5c1.243 0 2.25-1.007 2.25-2.25V3.75C22.5 2.507 21.493 1.5 20.25 1.5zM7.453 18.023c-.258.45-.835.6-1.279.342-.45-.258-.6-.835-.342-1.279l.671-1.158c.754-.23 1.373-.052 1.856.534zM13.964 15.497H5.438c-.516 0-.938-.422-.938-.938s.422-.938.938-.938h2.391l3.065-5.306-.961-1.659c-.258-.45-.103-1.022.342-1.279.45-.258 1.022-.103 1.279.342l.417.721.417-.721c.258-.45.835-.6 1.279-.342.45.258.6.835.342 1.279l-4.021 6.966h2.911c.947 0 1.477 1.111 1.064 1.875zM18.563 15.497h-1.36l.919 1.589c.258.45.103 1.022-.342 1.279-.45.258-1.022.103-1.279-.342-1.542-2.667-2.695-4.673-3.469-6.004-.783-1.36-.225-2.719.333-3.178.614 1.064 1.533 2.658 2.761 4.781h2.438c.516 0 .938.422.938.938 0 .52-.422.938-.938.938z"/>
</svg>