<svg class="link-svc-icon" viewBox="0 0 24 24" aria-hidden="true" xmlns="http://www.w3.org/2000/svg"><path fill="currentColor" fill-rule="nonzero" d="M 20.330282,4.227807 C 18.776719,3.500933 17.115576,2.972672 15.378897,2.671875 C 15.165612,3.057486 14.916434,3.576141 14.744634,3.988729 C 12.8985,3.711093 11.069341,3.711093 9.257158,3.988729 C 9.085391,3.576141 8.830555,3.057486 8.615362,2.671875 C 6.876807,2.972672 5.213756,3.502874 3.660193,4.231656 C 0.526643,8.966861 -0.322811,13.584451 0.101917,18.136474 C 2.180252,19.688523 4.194409,20.631347 6.174575,21.248304 C 6.663489,20.575418 7.099534,19.860125 7.475176,19.106274 C 6.759752,18.834429 6.074529,18.498956 5.427074,18.109497 C 5.59884,17.982243 5.766856,17.849199 5.92918,17.712305 C 9.878195,19.559361 14.168899,19.559361 18.070737,17.712305 C 18.234969,17.849199 18.402952,17.982243 18.572843,18.109497 C 17.92348,18.500865 17.236382,18.836337 16.520957,19.108215 C 16.896599,19.860125 17.330769,20.577359 17.821558,21.250212 C 19.803632,20.633255 21.819658,19.690464 23.897995,18.136474 C 24.396351,12.859519 23.046664,8.284335 20.330282,4.227807 M 8.013176,15.337021 C 6.827721,15.337021 5.855552,14.230327 5.855552,12.882647 C 5.855552,11.534967 6.806962,10.426365 8.013176,10.426365 C 9.219422,10.426365 10.191559,11.533026 10.1708,12.882647 C 10.172675,14.230327 9.219422,15.337021 8.013176,15.337021 M 15.986741,15.337021 C 14.801287,15.337021 13.829117,14.230327 13.829117,12.882647 C 13.829117,11.534967 14.780494,10.426365 15.986741,10.426365 C 17.192955,10.426365 18.165124,11.533026 18.144365,12.882647 C 18.144365,14.230327 17.192955,15.337021 15.986741,15.337021"/></svg>
