<svg class="link-svc-icon" viewBox="0 0 24 24" aria-hidden="true"><path d="M16.785 18.292c3.024-.36 5.655-2.213 5.985-3.905.522-2.667.48-6.508.48-6.508 0-5.205-3.429-6.732-3.429-6.732C18.093.357 15.125.025 12.041 0h-.075C8.881.025 5.913.357 4.185 1.147c0 0-3.428 1.527-3.428 6.732l-.003.993c-.006.96-.01 2.025.017 3.137.125 5.091.939 10.11 5.67 11.355 2.18.575 4.055.694 5.563.612 2.735-.15 4.27-.971 4.27-.971l-.09-1.975s-1.955.615-4.15.54c-2.175-.075-4.47-.234-4.823-2.892a6 6 0 0 1-.05-.744s2.136.519 4.842.642c1.655.075 3.205-.096 4.782-.284zm2.42-3.705h-2.51V8.47c0-1.288-.546-1.942-1.637-1.942-1.206 0-1.81.775-1.81 2.312v3.349H10.752V8.84c0-1.537-.604-2.312-1.81-2.312-1.09 0-1.636.654-1.636 1.943v6.117H4.795V8.283q0-1.932.99-3.069c.684-.758 1.578-1.146 2.69-1.146 1.284 0 2.256.492 2.95 1.475l.957 1.042.957-1.042c.693-.983 1.666-1.475 2.95-1.475 1.111 0 2.005.388 2.688 1.146q.992 1.137.991 3.069z"/></svg>
