<svg class="link-svc-icon" viewBox="0 0 24 24" aria-hidden="true" fill="currentColor" xmlns="http://www.w3.org/2000/svg">
  <path d="M8.244,7.797L6.680,4.626L8.554,1.202L11.936,2.442L9.103,7.303L8.244,7.642L8.244,7.797Z"/>
  <path d="M14.444,7.191L15.614,7.670L20.377,14.420L20.377,5.725L17.079,4.471L14.444,7.191Z"/>
  <path d="M11.936,2.442L8.554,1.202L11.809,0.060L15.107,1.188L11.936,2.442ZM3.523,5.697L0.000,4.260L3.241,3.203L6.595,4.457L3.523,5.697ZM17.079,4.471L20.561,3.033L23.943,4.260L20.377,5.725L17.079,4.471ZM8.244,7.642L11.936,6.162L15.614,7.670L11.978,9.164L8.244,7.642Z"/>
  <path d="M20.561,19.775L15.487,13.222L15.487,16.886L16.643,18.422L20.561,19.775Z"/>
  <path d="M8.244,7.642L11.978,9.164L11.978,23.298L8.484,21.861L3.368,12.560L3.368,19.761L0.000,18.380L0.000,4.260L3.523,5.697L8.244,14.871L8.244,7.642Z"/>
</svg>
