<svg class="link-svc-icon" viewBox="0 0 24 24" aria-hidden="true" fill="currentColor" xmlns="http://www.w3.org/2000/svg"><path d="M 22.64125,14.335755 L 18.370042,15.915058 L 18.370042,20.906343 L 9.888666,24 L 9.888666,13.982673 L 18.320742,10.848453 L 18.320742,2.757376 L 22.64125,4.335791 L 22.64125,14.335755 M 14.33683,17.033669 C 13.600076,17.302008 13.002899,18.155105 13.003163,18.939049 C 13.003452,19.722679 13.60093,20.140593 14.337398,19.872766 C 15.074149,19.60442 15.671471,18.751432 15.671203,17.967486 C 15.671079,17.183487 15.073588,16.765479 14.33683,17.033669 M 17.045129,9.960927 L 8.589229,13.095848 L 8.603135,19.459617 L 5.593268,20.537331 L 1.36,18.996537 L 1.36,8.996557 L 5.611767,7.417254 L 5.611767,2.425984 L 12.280549,0 L 17.045129,1.521735 L 17.045129,9.960927 M 11.448179,4.445299 C 10.711422,4.71353 10.114015,5.566782 10.114176,6.350764 C 10.114297,7.13476 10.711871,7.552933 11.448629,7.284742 C 12.185386,7.016527 12.782803,6.163266 12.782655,5.379281 C 12.782531,4.595283 12.184936,4.177108 11.448179,4.445299"/></svg>
