<svg class="link-svc-icon" viewBox="0 0 24 24" aria-hidden="true"><path d="M21 1.5a1.5 1.5 0 0 1 1.5 1.5v18a1.5 1.5 0 0 1-1.5 1.5H3A1.5 1.5 0 0 1 1.5 21V3A1.5 1.5 0 0 1 3 1.5zM3 0A3 3 0 0 0 0 3v18a3 3 0 0 0 3 3h18a3 3 0 0 0 3-3V3a3 3 0 0 0-3-3zM8.25 18a2.25 2.25 0 1 1-4.5 0 2.25 2.25 0 0 1 4.5 0m-4.5-12.75a1.5 1.5 0 0 1 1.5-1.5c8.284 0 15 6.716 15 15a1.5 1.5 0 1 1-3 0c0-6.627-5.373-12-12-12a1.5 1.5 0 0 1-1.5-1.5m0 6a1.5 1.5 0 0 1 1.5-1.5 9 9 0 0 1 9 9 1.5 1.5 0 1 1-3 0 6 6 0 0 0-6-6 1.5 1.5 0 0 1-1.5-1.5"/></svg>
