<svg class="link-svc-icon" viewBox="0 0 24 24" aria-hidden="true"><path fill-rule="evenodd" d="M 22.659375,5.476875 C 22.659375,5.55375 22.635,5.623125 22.588125,5.686875 C 22.539375,5.74875 22.48875,5.780625 22.430625,5.780625 C 21.96375,5.825625 21.579375,5.975625 21.283125,6.2325 C 20.985,6.4875 20.679375,6.976875 20.3625,7.696875 L 15.525,18.598125 C 15.493125,18.699375 15.405,18.75 15.25875,18.75 C 15.144375,18.75 15.05625,18.699375 14.9925,18.598125 L 12.279375,12.924375 L 9.159375,18.598125 C 9.095625,18.699375 9.0075,18.75 8.893125,18.75 C 8.754375,18.75 8.6625,18.699375 8.6175,18.598125 L 3.864375,7.696875 C 3.568125,7.02 3.255,6.5475 2.925,6.279375 C 2.596875,6.01125 2.1375,5.844375 1.550625,5.780625 C 1.5,5.780625 1.45125,5.754375 1.408125,5.7 C 1.363125,5.6475 1.340625,5.585625 1.340625,5.51625 C 1.340625,5.338125 1.39125,5.25 1.4925,5.25 C 1.91625,5.25 2.35875,5.26875 2.821875,5.30625 C 3.25125,5.345625 3.65625,5.364375 4.035,5.364375 C 4.42125,5.364375 4.876875,5.345625 5.401875,5.308125 C 5.95125,5.270625 6.43875,5.251875 6.8625,5.251875 C 6.96375,5.251875 7.014375,5.34 7.014375,5.518125 C 7.014375,5.694375 6.9825,5.784375 6.920625,5.784375 C 6.496875,5.81625 6.163125,5.925 5.919375,6.106875 C 5.675625,6.290625 5.55375,6.530625 5.55375,6.82875 C 5.55375,6.980625 5.604375,7.17 5.705625,7.396875 L 9.63375,16.2675 L 11.863125,12.05625 L 9.785625,7.700625 C 9.4125,6.924375 9.105,6.421875 8.865,6.196875 C 8.625,5.97375 8.26125,5.835 7.77375,5.784375 C 7.72875,5.784375 7.6875,5.758125 7.64625,5.70375 C 7.605,5.65125 7.584375,5.589375 7.584375,5.52 C 7.584375,5.341875 7.6275,5.25375 7.7175,5.25375 C 8.14125,5.25375 8.529375,5.2725 8.88375,5.31 C 9.225,5.349375 9.58875,5.368125 9.975,5.368125 C 10.35375,5.368125 10.755,5.349375 11.17875,5.311875 C 11.615625,5.274375 12.045,5.255625 12.46875,5.255625 C 12.57,5.255625 12.620625,5.34375 12.620625,5.521875 C 12.620625,5.698125 12.590625,5.788125 12.526875,5.788125 C 11.679375,5.84625 11.255625,6.08625 11.255625,6.51 C 11.255625,6.699375 11.353125,6.99375 11.55,7.39125 L 12.924375,10.18125 L 14.29125,7.629375 C 14.480625,7.269375 14.57625,6.965625 14.57625,6.718125 C 14.57625,6.136875 14.1525,5.8275 13.305,5.788125 C 13.228125,5.788125 13.190625,5.7 13.190625,5.521875 C 13.190625,5.458125 13.209375,5.398125 13.246875,5.341875 C 13.28625,5.28375 13.32375,5.255625 13.36125,5.255625 C 13.665,5.255625 14.038125,5.274375 14.480625,5.311875 C 14.904375,5.35125 15.253125,5.37 15.525,5.37 C 15.72,5.37 16.00875,5.353125 16.3875,5.32125 C 16.8675,5.278125 17.270625,5.255625 17.593125,5.255625 C 17.668125,5.255625 17.705625,5.330625 17.705625,5.4825 C 17.705625,5.685 17.63625,5.78625 17.4975,5.78625 C 17.004375,5.836875 16.606875,5.97375 16.306875,6.195 C 16.006875,6.41625 15.631875,6.91875 15.181875,7.7025 L 13.359375,11.071875 L 15.826875,16.09875 L 19.47,7.6275 C 19.595625,7.318125 19.659375,7.033125 19.659375,6.774375 C 19.659375,6.15375 19.235625,5.825625 18.388125,5.78625 C 18.31125,5.78625 18.27375,5.698125 18.27375,5.52 C 18.27375,5.341875 18.33,5.25375 18.444375,5.25375 C 18.75375,5.25375 19.12125,5.2725 19.545,5.31 C 19.936875,5.349375 20.266875,5.368125 20.53125,5.368125 C 20.810625,5.368125 21.133125,5.349375 21.49875,5.311875 C 21.879375,5.274375 22.220625,5.255625 22.524375,5.255625 C 22.6125,5.255625 22.6575,5.330625 22.6575,5.4825 L 22.659375,5.476875"/></svg>
